<svg width="44" height="57" viewBox="0 0 44 57" fill="none" xmlns="http://www.w3.org/2000/svg">
<path d="M22 56.5C23.6671 56.5 25.2659 55.7625 26.4447 54.4499C27.6235 53.1372 28.2857 51.3568 28.2857 49.5004H15.7143C15.7143 51.3568 16.3765 53.1372 17.5553 54.4499C18.7341 55.7625 20.3329 56.5 22 56.5ZM25.1271 4.34935C25.171 3.86272 25.1228 3.37125 24.9856 2.90664C24.8484 2.44203 24.6253 2.01459 24.3307 1.6519C24.036 1.28921 23.6764 0.999316 23.275 0.800912C22.8735 0.602508 22.4392 0.5 22 0.5C21.5608 0.5 21.1265 0.602508 20.725 0.800912C20.3236 0.999316 19.964 1.28921 19.6693 1.6519C19.3747 2.01459 19.1516 2.44203 19.0144 2.90664C18.8772 3.37125 18.829 3.86272 18.8729 4.34935C15.3205 5.15396 12.1271 7.30095 9.83326 10.4268C7.53942 13.5526 6.28617 17.4651 6.28571 21.5019C6.28571 25.3447 4.71429 42.5008 0 46.0006H44C39.2857 42.5008 37.7143 25.3447 37.7143 21.5019C37.7143 13.0324 32.3086 5.96276 25.1271 4.34935Z" fill="#212121"/>
</svg>
